<svg width="146" height="69" fill="none" xmlns="http://www.w3.org/2000/svg"><mask id="a" style="mask-type:alpha" maskUnits="userSpaceOnUse" x="0" y="0" width="146" height="33"><path fill-rule="evenodd" clip-rule="evenodd" d="M0 .35h145.703v32.17H0V.35z" fill="#fff"/></mask><g mask="url(#a)" fill-rule="evenodd" clip-rule="evenodd"><path d="m0 12.19 13.354.003h8.12V4.15L0 12.19z" fill="#E9A24E"/><path d="M21.474 4.15v28.4L31.615.35l-10.141 3.8z" fill="#4FBADC"/><path d="m21.474 12.194-8.12-.001 8.12 20.357V12.194z" fill="#006489"/><path d="m0 12.19 15.436 5.226-2.082-5.223L0 12.19z" fill="#CF635D"/><path d="M141.235 19.386h-.414c-.139 0-.277.01-.414.03-.494.04-.983.098-1.466.177a4.17 4.17 0 0 0-1.286.415 2.693 2.693 0 0 0-.918.769c-.236.315-.355.72-.355 1.213 0 .552.158 1.02.473 1.405.316.385.849.577 1.598.577.375 0 .73-.049 1.066-.148.335-.098.631-.227.888-.384.255-.158.458-.33.606-.518.148-.187.222-.36.222-.518v-3.018zm3.788 3.433c0 1.558.226 2.692.68 3.402a5.85 5.85 0 0 1-.991.296 5.1 5.1 0 0 1-.962.088c-.71 0-1.248-.137-1.613-.413-.365-.276-.596-.671-.695-1.184-.434.454-1.006.838-1.716 1.154-.71.315-1.579.474-2.604.474a5.976 5.976 0 0 1-1.598-.221 4.191 4.191 0 0 1-1.45-.723c-.434-.335-.789-.782-1.065-1.342-.276-.56-.414-1.244-.414-2.05 0-1.003.241-1.82.725-2.448a5.152 5.152 0 0 1 1.819-1.49 8.248 8.248 0 0 1 2.368-.752 22.611 22.611 0 0 1 2.338-.266c.236-.02.467-.029.695-.029h.636v-.54c0-.757-.203-1.296-.607-1.615-.405-.32-1.061-.479-1.968-.479-.848 0-1.602.138-2.263.414-.662.277-1.307.592-1.938.947a4.348 4.348 0 0 1-.667-1.11c-.167-.404-.251-.704-.251-.902 0-.276.153-.542.459-.799.305-.256.725-.488 1.258-.695a10.28 10.28 0 0 1 1.834-.503c.69-.128 1.42-.193 2.19-.193 1.065 0 1.967.11 2.708.326.739.217 1.341.552 1.804 1.006.464.454.794 1.02.992 1.701.197.681.296 1.475.296 2.382v5.564zm-19.205-9.187c.118-.177.276-.373.474-.588.196-.215.438-.41.724-.587.286-.176.602-.323.948-.44a3.42 3.42 0 0 1 1.109-.177c.237 0 .488.02.754.06.267.038.513.112.74.22.227.107.409.253.548.44.138.185.207.415.207.689 0 .43-.109.924-.325 1.482a12.185 12.185 0 0 1-.652 1.43 4.386 4.386 0 0 0-1.005-.637c-.336-.147-.731-.222-1.184-.222-.612 0-1.124.179-1.539.535-.414.355-.621.78-.621 1.276v9.579h-4.024V12.255a6.742 6.742 0 0 1 .769-.104c.158-.01.345-.015.562-.015.631 0 1.179.123 1.642.367.463.244.754.62.873 1.129zm-11.441 0c.118-.177.276-.373.473-.588.197-.215.439-.41.725-.587a4.67 4.67 0 0 1 .947-.44 3.431 3.431 0 0 1 1.11-.177c.236 0 .488.02.754.06.266.038.513.112.74.22.227.107.409.253.547.44.138.185.208.415.208.689 0 .43-.109.924-.326 1.482a12.032 12.032 0 0 1-.651 1.43 4.39 4.39 0 0 0-1.006-.637c-.336-.147-.73-.222-1.184-.222-.612 0-1.124.179-1.539.535-.413.355-.621.78-.621 1.276v9.579h-4.024V12.255a7.115 7.115 0 0 1 .77-.104c.157-.01.345-.015.562-.015.631 0 1.178.123 1.642.367.463.244.755.62.873 1.129zm-10.643 4.097c0-.947-.184-1.716-.551-2.308-.367-.592-1.027-.888-1.979-.888-.813 0-1.463.281-1.949.843-.486.563-.729 1.346-.729 2.353h5.208zm-1.348 6.006c.494 0 .93-.053 1.307-.162a5.22 5.22 0 0 0 1.009-.4c.296-.157.554-.33.772-.517.218-.188.415-.36.594-.518.237.295.484.676.742 1.139.257.464.386.843.386 1.14 0 .433-.246.828-.74 1.182-.414.317-1.001.588-1.76.815-.76.226-1.652.34-2.678.34-.928 0-1.84-.118-2.738-.356a6.042 6.042 0 0 1-2.396-1.243c-.7-.59-1.268-1.385-1.702-2.381-.434-.996-.65-2.254-.65-3.773 0-1.243.192-2.313.577-3.21.384-.898.897-1.643 1.539-2.234a6.06 6.06 0 0 1 2.174-1.302 7.647 7.647 0 0 1 2.486-.415c1.104 0 2.041.173 2.81.518.77.346 1.396.81 1.88 1.391a5.472 5.472 0 0 1 1.05 1.997c.217.75.326 1.539.326 2.367v.415c0 .158-.006.325-.015.503l-.03.517c-.01.169-.025.301-.044.4h-8.73c.08 1.085.416 1.987 1.01 2.708.593.72 1.534 1.08 2.821 1.08zm-18.034.385a5.13 5.13 0 0 1-.266-1.243c-.04-.434-.06-.867-.06-1.302V7.845l.444-.059a6.479 6.479 0 0 1 .917-.059c.316 0 .632.03.948.089.314.06.6.178.858.355.256.178.463.42.62.725.159.306.237.706.237 1.198v2.101h4.144v2.989H88.05v6.31c0 1.376.563 2.064 1.687 2.064.276 0 .537-.044.784-.133.247-.09.469-.187.666-.297a3.59 3.59 0 0 0 .518-.34c.148-.118.252-.207.31-.266.297.435.524.81.681 1.128.158.318.237.615.237.894 0 .26-.103.513-.31.762-.208.249-.5.477-.873.687a5.43 5.43 0 0 1-1.362.508 7.396 7.396 0 0 1-1.746.193c-1.223 0-2.175-.236-2.855-.71a3.773 3.773 0 0 1-1.435-1.864zm-7.308-5.09c0-.591-.05-1.143-.147-1.656a4.032 4.032 0 0 0-.485-1.332 2.358 2.358 0 0 0-.913-.873c-.382-.207-.848-.31-1.397-.31-.824 0-1.398.158-1.722.473-.323.316-.485.661-.485 1.036v6.273c.157.158.436.345.839.562.402.217.867.325 1.397.325 1 0 1.736-.394 2.207-1.183.471-.79.706-1.894.706-3.314zm-5.326-5.474c.314-.374.806-.754 1.475-1.138.668-.385 1.513-.578 2.537-.578a5.89 5.89 0 0 1 2.08.37 4.555 4.555 0 0 1 1.754 1.199c.512.552.92 1.282 1.225 2.19.305.907.457 2.022.457 3.343 0 1.538-.177 2.806-.53 3.802-.355.997-.812 1.786-1.372 2.368-.561.582-1.186.99-1.874 1.228a6.332 6.332 0 0 1-2.064.354c-.57 0-1.067-.064-1.49-.191a5.942 5.942 0 0 1-1.077-.43 2.835 2.835 0 0 1-.973-.8v7.275h-4.024V12.255a7.014 7.014 0 0 1 .775-.104c.159-.01.348-.015.566-.015.656 0 1.212.109 1.67.326.457.217.746.582.865 1.094zm-11.155 5.83h-.414c-.14 0-.277.01-.415.03-.493.04-.982.098-1.465.177a4.176 4.176 0 0 0-1.287.415c-.374.197-.68.453-.917.769-.237.315-.355.72-.355 1.213 0 .552.158 1.02.474 1.405.315.385.847.577 1.597.577.374 0 .73-.049 1.066-.148a3.66 3.66 0 0 0 .887-.384c.256-.158.459-.33.607-.518.148-.187.222-.36.222-.518v-3.018zm3.787 3.433c0 1.558.227 2.692.68 3.402a5.856 5.856 0 0 1-.99.296 5.089 5.089 0 0 1-.962.088c-.71 0-1.248-.137-1.613-.413-.365-.276-.597-.671-.695-1.184-.435.454-1.006.838-1.716 1.154-.71.315-1.579.474-2.604.474a5.975 5.975 0 0 1-1.598-.221 4.204 4.204 0 0 1-1.45-.723c-.435-.335-.79-.782-1.065-1.342-.277-.56-.415-1.244-.415-2.05 0-1.003.242-1.82.725-2.448a5.166 5.166 0 0 1 1.82-1.49 8.243 8.243 0 0 1 2.367-.752 22.62 22.62 0 0 1 2.338-.266c.237-.02.469-.029.696-.029h.635v-.54c0-.757-.202-1.296-.606-1.615-.405-.32-1.06-.479-1.968-.479-.848 0-1.603.138-2.263.414-.662.277-1.307.592-1.938.947a4.322 4.322 0 0 1-.666-1.11c-.168-.404-.252-.704-.252-.902 0-.276.153-.542.459-.799.305-.256.725-.488 1.257-.695a10.295 10.295 0 0 1 1.835-.503 11.98 11.98 0 0 1 2.19-.193c1.065 0 1.968.11 2.707.326.74.217 1.342.552 1.805 1.006.464.454.794 1.02.992 1.701.196.681.295 1.475.295 2.382v5.564zm-15.157 2.255a3.736 3.736 0 0 1-.589.441 6.462 6.462 0 0 1-1.073.53 9.38 9.38 0 0 1-1.618.456c-.638.127-1.368.19-2.191.19-1.589 0-2.962-.255-4.118-.764-1.157-.51-2.113-1.221-2.868-2.132-.755-.912-1.309-1.99-1.662-3.236-.353-1.245-.53-2.613-.53-4.103 0-1.49.192-2.868.574-4.132.383-1.265.956-2.358 1.721-3.28.765-.922 1.72-1.642 2.868-2.162 1.147-.52 2.495-.78 4.044-.78a9.6 9.6 0 0 1 2.074.206c.618.138 1.156.3 1.617.486.461.187.843.382 1.148.588.304.206.533.378.69.514.177.158.329.344.457.56.127.216.191.451.191.706 0 .392-.147.784-.441 1.176a8.481 8.481 0 0 1-.971 1.088 11.85 11.85 0 0 0-.794-.72 5.351 5.351 0 0 0-.985-.647 6.536 6.536 0 0 0-1.236-.47 5.798 5.798 0 0 0-1.544-.192c-1 0-1.838.201-2.514.603a4.83 4.83 0 0 0-1.633 1.574 6.674 6.674 0 0 0-.883 2.22 12.903 12.903 0 0 0 0 5.191c.177.843.48 1.59.912 2.236.431.647.995 1.167 1.692 1.559.695.392 1.563.588 2.603.588.549 0 1.053-.069 1.514-.206.46-.136.868-.304 1.221-.5.353-.196.662-.402.926-.617.265-.216.486-.402.662-.56.117.138.255.305.412.5.158.198.306.405.441.618.137.216.255.432.353.647.098.217.147.412.147.588 0 .256-.049.471-.147.647a2.805 2.805 0 0 1-.47.589z" fill="#006489"/></g><path fill-rule="evenodd" clip-rule="evenodd" d="m7.307 59.94-1.564 8.798 8.188-4.155 8.189 4.155-1.563-8.799 6.624-6.232-9.155-1.283-4.095-8.006-4.094 8.006-9.155 1.283 6.625 6.232zm30.006 0-1.563 8.798 8.188-4.155 8.19 4.155-1.564-8.799 6.624-6.232-9.155-1.283-4.095-8.006-4.094 8.006-9.155 1.283 6.624 6.232zm27.372 8.798 1.563-8.799-6.624-6.232 9.155-1.283 4.094-8.006 4.095 8.006 9.155 1.283-6.624 6.232 1.563 8.799-8.189-4.155-8.188 4.155zm31.57-8.799-1.563 8.799 8.189-4.155 8.188 4.155-1.565-8.799 6.626-6.232-9.155-1.283-4.094-8.006-4.095 8.006-9.155 1.283 6.624 6.232z" fill="#FF9C00"/><path d="m131.815 64.583-8.188 4.155 1.563-8.799-6.624-6.232 9.155-1.283 4.094-8.006 4.095 8.006 9.155 1.283-6.626 6.232 1.565 8.799-8.189-4.155z" fill="#FFD99D"/><path d="m131.815 64.583-8.188 4.155 1.563-8.799-6.624-6.232 9.155-1.283 4.094-8.006v20.165z" fill="#FF9C00"/></svg>