<svg width="112" height="126" fill="none" xmlns="http://www.w3.org/2000/svg"><path d="m9.282 97.894 47.621 24.232 45.813-24.232V3.134H9.282v94.76z" fill="#fff"/><path d="M103.682 3.497 8.319 99.583l49.43 24.474 45.933-23.51V3.497z" fill="#F2F3F2"/><path d="M6.148 34.721v65.223l1.688.844 47.62 24.232 1.448.724 1.446-.724 45.934-24.232 1.687-.844V0H6.148v34.721zm3.135 63.415V3.135h93.554v95l-45.933 24.233L9.283 98.136z" fill="#DCDEDC"/><path d="M56.06 4.702c.483 0 .965 0 1.447.12l-1.446 2.773c-2.17-.12-4.1 1.568-4.22 3.738-.12 2.17 1.567 4.099 3.737 4.22h.483c.964 0 1.929-.363 2.652-.965l1.567 2.652a7.308 7.308 0 0 1-4.22 1.326c-3.857.12-7.112-2.773-7.233-6.63-.12-3.858 2.773-7.114 6.63-7.234h.604zm4.944 5.907 1.808 3.014-1.808 2.894-1.688-2.894H55.82l1.808-3.014h3.376zM58.11 9.524c0-.482.12-.964.362-1.326.241-.362.723-.723 1.085-.964l.241-.121c.482-.241.603-.362.603-.603 0-.24-.362-.482-.603-.482-.482 0-.844.241-1.085.723l-.603-.602c.12-.242.362-.483.603-.724.362-.24.723-.24 1.085-.24s.844.12 1.085.36c.241.242.482.604.482.965 0 .603-.361 1.085-1.085 1.326l-.361.242c-.362.24-.603.361-.724.723h2.17v.844l-3.255-.12zm-2.05 15.07 11.454-6.51V0H44.487v17.963l11.574 6.631z" fill="#FF492C"/><path d="M108.263 67.272H3.858L0 75.712l3.858 8.439h104.405L112 75.71l-3.737-8.439z" fill="#FFD200"/><path d="M38.532 49.188a.24.24 0 0 1 .156.06c.04.049.06.1.06.157v1.772a.24.24 0 0 1-.06.157.24.24 0 0 1-.156.06h-3.243c-.057 0-.085.032-.085.097V61.63c0 .064-.02.116-.06.156a.24.24 0 0 1-.157.06h-2.122a.197.197 0 0 1-.144-.06.194.194 0 0 1-.073-.156V51.49c0-.064-.028-.096-.084-.096h-3.147a.24.24 0 0 1-.156-.06.24.24 0 0 1-.06-.157v-1.772a.24.24 0 0 1 .06-.157.24.24 0 0 1 .156-.06h9.115zm5.787 12.803c-1.013 0-1.881-.265-2.605-.795-.723-.53-1.217-1.254-1.483-2.17a6.396 6.396 0 0 1-.253-1.845c0-.707.085-1.346.253-1.917.282-.892.784-1.591 1.508-2.098.715-.506 1.583-.76 2.604-.76.988 0 1.828.25 2.52.748.707.507 1.2 1.206 1.482 2.098.201.603.302 1.234.302 1.893a6.43 6.43 0 0 1-.254 1.832c-.273.94-.767 1.676-1.483 2.207-.715.538-1.579.807-2.591.807zm0-2.182c.401 0 .739-.12 1.012-.361.273-.242.47-.575.59-1.001.097-.386.146-.808.146-1.266 0-.506-.049-.932-.145-1.278-.129-.41-.33-.731-.603-.964a1.57 1.57 0 0 0-1.013-.338c-.41 0-.751.113-1.024.338-.274.233-.47.554-.591.964-.097.282-.145.707-.145 1.278 0 .547.044.969.133 1.266.12.426.321.76.603 1 .281.242.627.362 1.037.362zm14.346 2.182c-.932 0-1.752-.18-2.46-.542a4.019 4.019 0 0 1-1.639-1.531c-.394-.66-.59-1.415-.59-2.267v-8.246a.24.24 0 0 1 .06-.157.24.24 0 0 1 .156-.06h2.122c.056 0 .105.02.145.06.048.049.072.1.072.157v8.27c0 .635.193 1.15.579 1.544.394.393.912.59 1.555.59.635 0 1.15-.197 1.543-.59.394-.394.591-.909.591-1.544v-8.27a.24.24 0 0 1 .06-.157c.04-.04.093-.06.157-.06h2.11c.064 0 .116.02.157.06.04.049.06.1.06.157v8.246c0 .852-.197 1.608-.59 2.267a3.922 3.922 0 0 1-1.64 1.53c-.708.363-1.524.543-2.448.543zm10.32-.024c-.804 0-1.507-.112-2.11-.337-.603-.225-1.073-.543-1.41-.953a2.171 2.171 0 0 1-.495-1.398v-.181a.24.24 0 0 1 .06-.157.24.24 0 0 1 .157-.06h2.014c.056 0 .104.02.144.06.049.048.073.1.073.157v.012c0 .273.144.502.434.687.297.185.67.278 1.12.278.41 0 .74-.08.99-.242.257-.168.385-.37.385-.602 0-.217-.108-.382-.325-.495-.217-.104-.575-.217-1.073-.337a10.381 10.381 0 0 1-1.338-.422c-.772-.265-1.387-.59-1.845-.977-.458-.386-.687-.94-.687-1.663 0-.893.346-1.6 1.037-2.122.699-.523 1.62-.784 2.76-.784.772 0 1.447.12 2.026.362.579.249 1.029.599 1.35 1.049.322.442.482.948.482 1.519a.183.183 0 0 1-.072.144.197.197 0 0 1-.145.06h-1.94a.24.24 0 0 1-.157-.06.197.197 0 0 1-.06-.144c0-.266-.137-.49-.41-.675-.266-.185-.623-.278-1.074-.278-.393 0-.719.077-.976.23-.25.144-.374.34-.374.59 0 .241.12.422.362.543.25.12.663.249 1.242.385l.458.109c.169.04.35.092.542.157.852.257 1.527.582 2.026.976.49.402.735.98.735 1.736 0 .892-.354 1.587-1.06 2.086-.7.498-1.648.747-2.846.747zm13.6-5.726c.072.458.096.968.072 1.53-.009.154-.085.23-.23.23h-5.594c-.072 0-.096.028-.072.084.04.241.109.483.205.724.314.675.953 1.012 1.917 1.012.772-.008 1.378-.321 1.82-.94.049-.072.105-.108.17-.108.031 0 .072.024.12.072l1.302 1.278c.064.064.096.12.096.169 0 .024-.024.072-.072.144a3.89 3.89 0 0 1-1.543 1.145 5.103 5.103 0 0 1-2.062.41c-1.037 0-1.913-.233-2.628-.699-.715-.474-1.23-1.133-1.543-1.977-.257-.603-.386-1.39-.386-2.363 0-.667.092-1.254.277-1.76.274-.852.756-1.531 1.447-2.038.7-.506 1.523-.76 2.472-.76 1.205 0 2.174.35 2.905 1.05.731.699 1.173 1.631 1.326 2.797zm-4.208-1.64c-.764 0-1.266.354-1.507 1.061a4.02 4.02 0 0 0-.12.579c0 .056.027.084.083.084h3.135c.072 0 .096-.028.072-.084a21.503 21.503 0 0 0-.096-.507 1.541 1.541 0 0 0-.567-.843c-.273-.193-.607-.29-1-.29zM35.468 33.069a.194.194 0 0 1-.073.157.197.197 0 0 1-.144.06h-5.944c-.056 0-.084.032-.084.096v2.797c0 .065.028.097.084.097h3.894a.24.24 0 0 1 .157.06c.04.048.06.1.06.157v1.748c0 .064-.02.117-.06.157a.219.219 0 0 1-.157.072h-3.894c-.056 0-.084.028-.084.084v2.93c0 .064.028.096.084.096h5.944c.056 0 .104.02.144.06.048.04.073.09.073.145v1.76a.194.194 0 0 1-.073.157.197.197 0 0 1-.144.06h-8.367a.197.197 0 0 1-.145-.06.194.194 0 0 1-.072-.156V31.32c0-.056.024-.109.072-.157.04-.04.088-.06.145-.06h8.367c.056 0 .104.02.144.06.048.048.073.1.073.157v1.748zm5.316 1.254c.78 0 1.48.136 2.098.41.61.273 1.09.643 1.435 1.109.337.474.506 1 .506 1.58v6.124c0 .064-.02.116-.06.156a.212.212 0 0 1-.157.06h-2.11a.212.212 0 0 1-.157-.06.212.212 0 0 1-.06-.156v-.591c0-.04-.012-.064-.036-.072-.024-.017-.048-.005-.072.036-.507.659-1.322.988-2.448.988-.94 0-1.695-.229-2.266-.687-.587-.458-.88-1.133-.88-2.025 0-.925.33-1.644.988-2.158.643-.515 1.568-.772 2.773-.772h1.857c.056 0 .084-.028.084-.084v-.398c0-.402-.12-.715-.361-.94-.242-.218-.603-.326-1.085-.326-.37 0-.68.064-.929.193-.249.136-.41.325-.482.566-.032.13-.113.19-.241.181l-2.182-.289c-.145-.024-.213-.08-.205-.169.056-.506.261-.964.615-1.374.353-.41.823-.728 1.41-.953.579-.233 1.234-.35 1.965-.35zm-.373 7.691c.522 0 .964-.14 1.326-.422.361-.28.542-.639.542-1.072v-.652c0-.056-.028-.084-.084-.084h-1.302c-.547 0-.973.105-1.278.314-.306.2-.458.49-.458.868 0 .321.112.574.337.76.225.192.53.288.917.288zm9.922 1.87c-.812 0-1.52-.113-2.122-.338-.603-.225-1.07-.543-1.399-.953a2.14 2.14 0 0 1-.506-1.398v-.181c0-.056.024-.109.072-.157.04-.04.089-.06.145-.06h2.013c.065 0 .117.02.157.06.04.048.06.1.06.157v.012c0 .273.149.502.446.687.29.185.66.277 1.11.277.41 0 .739-.08.988-.24.257-.17.386-.37.386-.604 0-.217-.109-.381-.326-.494-.217-.104-.574-.217-1.073-.337a10.381 10.381 0 0 1-1.338-.422c-.771-.266-1.386-.591-1.844-.977-.458-.386-.688-.94-.688-1.664 0-.892.35-1.6 1.05-2.122.69-.522 1.61-.783 2.76-.783.772 0 1.447.12 2.026.361.57.25 1.016.6 1.338 1.05.321.441.482.948.482 1.518 0 .057-.02.105-.06.145a.212.212 0 0 1-.157.06h-1.929a.212.212 0 0 1-.157-.06.197.197 0 0 1-.06-.145c0-.265-.137-.49-.41-.675-.273-.184-.63-.277-1.073-.277-.402 0-.731.076-.988.23-.25.144-.374.34-.374.59 0 .241.124.422.373.542.242.12.656.25 1.242.386.129.032.278.069.446.109.17.04.35.092.543.156.86.258 1.535.583 2.025.977.49.402.736.98.736 1.736 0 .892-.35 1.587-1.05 2.086-.706.498-1.655.747-2.844.747zm6.739-10.465a1.39 1.39 0 0 1-1.025-.41c-.265-.266-.398-.603-.398-1.013 0-.426.133-.772.398-1.037.265-.265.607-.398 1.025-.398.426 0 .767.133 1.025.398.273.265.41.611.41 1.037 0 .41-.137.747-.41 1.013a1.39 1.39 0 0 1-1.025.41zm-1.085 10.344a.24.24 0 0 1-.157-.06.212.212 0 0 1-.06-.157v-8.874c0-.064.02-.116.06-.156a.24.24 0 0 1 .157-.06h2.11c.064 0 .116.02.156.06.04.04.06.092.06.156v8.874c0 .064-.02.116-.06.156a.212.212 0 0 1-.156.06h-2.11zm12.55-5.606c.072.458.097.968.072 1.53-.008.153-.084.23-.229.23h-5.594c-.072 0-.096.028-.072.084.04.241.109.482.205.724.314.675.949 1.012 1.905 1.012.772-.008 1.382-.321 1.832-.94.049-.072.105-.109.17-.109.031 0 .072.024.12.073l1.302 1.278c.064.064.096.12.096.168 0 .024-.028.073-.084.145-.394.498-.904.88-1.531 1.145a5.103 5.103 0 0 1-2.062.41c-1.037 0-1.913-.233-2.628-.699-.715-.474-1.234-1.133-1.555-1.977-.25-.603-.374-1.39-.374-2.363 0-.667.092-1.254.277-1.76.274-.852.756-1.531 1.447-2.038.7-.506 1.523-.76 2.471-.76 1.206 0 2.175.35 2.906 1.05.731.699 1.173 1.631 1.326 2.797zm-4.22-1.64c-.755 0-1.253.354-1.494 1.06-.049.162-.089.355-.12.58 0 .056.027.084.083.084h3.135c.064 0 .084-.028.06-.084a24.449 24.449 0 0 0-.084-.507c-.113-.361-.302-.643-.567-.844-.273-.193-.61-.29-1.012-.29zm9.573 7.366c-.804 0-1.507-.112-2.11-.337-.603-.225-1.073-.543-1.41-.953a2.171 2.171 0 0 1-.495-1.398v-.181a.24.24 0 0 1 .06-.157.24.24 0 0 1 .157-.06h2.002c.064 0 .116.02.156.06.04.048.06.1.06.157v.012c0 .273.15.502.447.687.297.185.667.277 1.109.277.418 0 .751-.08 1-.24.25-.17.374-.37.374-.604 0-.217-.104-.381-.313-.494-.225-.104-.583-.217-1.073-.337-.57-.145-1.017-.286-1.338-.422-.772-.266-1.387-.591-1.845-.977-.458-.386-.687-.94-.687-1.664 0-.892.346-1.6 1.037-2.122.69-.522 1.611-.783 2.76-.783.772 0 1.447.12 2.026.361.579.25 1.029.6 1.35 1.05.322.441.482.948.482 1.518a.183.183 0 0 1-.072.145.197.197 0 0 1-.145.06h-1.94a.24.24 0 0 1-.157-.06.197.197 0 0 1-.06-.145c0-.265-.137-.49-.41-.675-.266-.184-.623-.277-1.074-.277-.393 0-.719.076-.976.23-.25.144-.374.34-.374.59 0 .241.12.422.362.542.25.12.663.25 1.242.386l.458.109c.169.04.345.092.53.156.86.258 1.535.583 2.026.977.498.402.747.98.747 1.736 0 .892-.354 1.587-1.06 2.086-.708.498-1.657.747-2.846.747zM84.596 36.3c0 .056-.02.104-.06.145a.194.194 0 0 1-.157.072h-1.736c-.057 0-.085.028-.085.084v3.834c0 .394.08.691.241.892.161.193.422.29.784.29h.603c.056 0 .104.02.144.06.049.04.073.092.073.157v1.712c0 .136-.073.213-.217.229-.515.024-.876.036-1.085.036-1.005 0-1.752-.165-2.243-.495-.498-.329-.751-.952-.76-1.868V36.6c0-.056-.031-.084-.096-.084h-1.024a.194.194 0 0 1-.157-.072.197.197 0 0 1-.06-.145v-1.616a.24.24 0 0 1 .06-.156c.04-.04.092-.06.157-.06h1.024c.065 0 .097-.033.097-.097v-2.146a.24.24 0 0 1 .06-.157c.04-.04.092-.06.157-.06h2.025c.056 0 .105.02.145.06.048.049.072.1.072.157v2.146c0 .064.028.096.085.096h1.736c.064 0 .116.02.156.06.04.049.06.101.06.157V36.3z" fill="#252530"/><path d="M34.107 73.035a.13.13 0 0 1-.036.096.15.15 0 0 1-.108.048h-4.111c-.04 0-.06.02-.06.06v2.255c0 .04.02.06.06.06h2.76c.04 0 .077.013.109.037a.176.176 0 0 1 .036.108v.916c0 .04-.012.077-.036.109a.176.176 0 0 1-.108.036h-2.761c-.04 0-.06.02-.06.06v2.327c0 .04.02.06.06.06h4.11a.15.15 0 0 1 .11.049.13.13 0 0 1 .035.096v.916a.13.13 0 0 1-.036.097.15.15 0 0 1-.108.048h-5.425a.115.115 0 0 1-.097-.048.115.115 0 0 1-.048-.097v-8.15c0-.04.016-.072.048-.096a.115.115 0 0 1 .097-.048h5.425a.15.15 0 0 1 .108.048.13.13 0 0 1 .036.096v.917zm4.244 1.121c.651 0 1.174.193 1.567.579.386.385.58.912.58 1.579v3.954c0 .04-.017.073-.05.097a.115.115 0 0 1-.096.048h-1.109a.15.15 0 0 1-.108-.048.13.13 0 0 1-.036-.097v-3.665c0-.37-.105-.67-.314-.904-.209-.225-.486-.337-.832-.337-.345 0-.627.112-.844.337-.209.225-.313.523-.313.892v3.677a.13.13 0 0 1-.036.097.15.15 0 0 1-.109.048h-1.109a.115.115 0 0 1-.096-.048.115.115 0 0 1-.049-.097v-5.87a.15.15 0 0 1 .049-.11.13.13 0 0 1 .096-.036h1.11c.04 0 .076.013.108.037a.176.176 0 0 1 .036.108v.386c0 .024.008.04.024.048s.028 0 .036-.024c.33-.434.828-.651 1.495-.651zm6.872 1.085c0 .04-.016.072-.048.096a.115.115 0 0 1-.097.049h-1.23c-.04 0-.06.02-.06.06v2.905c0 .306.065.527.193.663.137.137.35.206.64.206h.36a.13.13 0 0 1 .097.036.15.15 0 0 1 .049.108v.904c0 .089-.049.141-.145.157l-.627.012c-.635 0-1.11-.108-1.423-.325-.313-.217-.474-.627-.482-1.23v-3.436c0-.04-.02-.06-.06-.06h-.687a.15.15 0 0 1-.109-.049.13.13 0 0 1-.036-.096v-.844c0-.04.012-.076.036-.108a.176.176 0 0 1 .109-.037h.687c.04 0 .06-.02.06-.06v-1.41c0-.04.012-.077.036-.109a.176.176 0 0 1 .109-.036h1.049a.13.13 0 0 1 .096.036.15.15 0 0 1 .048.109v1.41c0 .04.02.06.06.06h1.23a.13.13 0 0 1 .097.037.15.15 0 0 1 .048.108v.844zm6.438 1.398c.032.201.048.427.048.676l-.012.373c0 .097-.048.145-.145.145H47.78c-.04 0-.06.02-.06.06.024.266.06.446.108.543.193.578.663.872 1.41.88.547 0 .981-.225 1.303-.675.032-.048.072-.073.12-.073.032 0 .06.013.085.037l.747.614c.073.057.085.121.036.193-.249.354-.582.627-1 .82-.41.193-.868.29-1.375.29-.627 0-1.157-.141-1.591-.422a2.417 2.417 0 0 1-.965-1.182c-.184-.434-.277-1.037-.277-1.808 0-.466.048-.844.145-1.134.16-.562.466-1.008.916-1.338.442-.321.977-.482 1.603-.482 1.584 0 2.476.828 2.677 2.483zm-2.677-1.277c-.297 0-.542.076-.735.229-.2.144-.342.35-.422.615a2.09 2.09 0 0 0-.096.53c-.016.04 0 .06.048.06h2.447c.04 0 .06-.02.06-.06-.016-.201-.04-.354-.072-.458a1.181 1.181 0 0 0-.422-.675c-.217-.161-.486-.241-.808-.241zm6.872-1.182c.258 0 .483.052.675.157.065.032.089.092.073.18l-.205 1.086c-.008.096-.064.124-.169.084-.12-.04-.261-.06-.422-.06-.104 0-.185.004-.241.012a1.259 1.259 0 0 0-.844.35c-.225.224-.337.514-.337.867v3.412c0 .04-.017.073-.049.097a.115.115 0 0 1-.096.048h-1.11a.15.15 0 0 1-.108-.048.13.13 0 0 1-.036-.097v-5.87c0-.041.012-.077.036-.11a.177.177 0 0 1 .109-.036h1.109a.13.13 0 0 1 .096.037.15.15 0 0 1 .049.108v.543c0 .032.004.048.012.048.016.008.032 0 .048-.024.337-.523.808-.784 1.41-.784zm6.884 1.664c.145.41.217.912.217 1.507 0 .57-.068 1.06-.205 1.47-.176.531-.462.945-.856 1.242-.385.298-.876.446-1.47.446-.571 0-1.03-.204-1.375-.614-.016-.016-.032-.02-.048-.013-.016.009-.024.025-.024.049v2.616c0 .04-.016.072-.048.096a.115.115 0 0 1-.097.049h-1.109a.15.15 0 0 1-.108-.049.13.13 0 0 1-.037-.096v-8.15c0-.04.013-.076.037-.108a.176.176 0 0 1 .108-.037h1.11a.13.13 0 0 1 .096.037.15.15 0 0 1 .048.108v.362c0 .024.008.04.024.048s.032 0 .048-.024c.354-.418.816-.627 1.387-.627.57 0 1.053.149 1.446.446.394.297.68.711.856 1.242zm-1.567 2.954c.241-.37.362-.86.362-1.471 0-.587-.097-1.05-.29-1.387-.225-.394-.566-.59-1.024-.59-.418 0-.732.192-.94.578-.186.314-.278.78-.278 1.399 0 .635.1 1.117.301 1.446.21.354.51.53.905.53.426 0 .747-.168.964-.505zm6.004-4.618c.257 0 .482.052.675.157.064.032.088.092.072.18l-.205 1.086c-.008.096-.064.124-.168.084-.12-.04-.261-.06-.422-.06-.105 0-.185.004-.241.012a1.259 1.259 0 0 0-.844.35c-.225.224-.338.514-.338.867v3.412c0 .04-.016.073-.048.097a.115.115 0 0 1-.097.048h-1.109a.15.15 0 0 1-.108-.048.13.13 0 0 1-.036-.097v-5.87c0-.041.012-.077.036-.11a.176.176 0 0 1 .108-.036h1.11a.13.13 0 0 1 .096.037.15.15 0 0 1 .048.108v.543c0 .032.008.048.024.048.008.008.02 0 .036-.024.338-.523.808-.784 1.411-.784zm2.46-.772a.833.833 0 0 1-.615-.24.833.833 0 0 1-.242-.616c0-.249.08-.454.242-.614a.833.833 0 0 1 .614-.242c.25 0 .455.08.615.242.161.16.241.365.241.614 0 .25-.08.455-.24.615a.833.833 0 0 1-.616.242zm-.58 7.005a.115.115 0 0 1-.096-.048.115.115 0 0 1-.048-.097v-5.883c0-.04.016-.072.048-.096a.115.115 0 0 1 .097-.049h1.109c.04 0 .072.016.096.049a.115.115 0 0 1 .048.096v5.883c0 .04-.016.073-.048.097a.115.115 0 0 1-.096.048h-1.11zm5.149.072c-.507 0-.953-.076-1.339-.229-.377-.144-.67-.35-.88-.615a1.34 1.34 0 0 1-.313-.868v-.108c0-.04.012-.077.036-.109a.176.176 0 0 1 .109-.036h1.06a.13.13 0 0 1 .097.036.15.15 0 0 1 .048.109v.024c0 .2.109.378.326.53.225.145.506.218.844.218.321 0 .582-.065.783-.193.201-.137.302-.306.302-.507a.46.46 0 0 0-.254-.422c-.16-.088-.426-.185-.795-.29l-.458-.144c-.41-.12-.756-.249-1.037-.385a2.04 2.04 0 0 1-.712-.567c-.192-.233-.289-.535-.289-.904 0-.563.221-1.01.663-1.339.442-.337 1.025-.506 1.748-.506.49 0 .92.076 1.29.23.37.16.655.377.856.65.201.281.302.599.302.953a.15.15 0 0 1-.049.108.13.13 0 0 1-.096.036h-1.025a.177.177 0 0 1-.108-.036.176.176 0 0 1-.036-.108c0-.21-.105-.382-.314-.519-.2-.144-.478-.217-.832-.217-.313 0-.57.056-.771.169-.193.12-.29.285-.29.494 0 .193.093.338.278.434.193.105.51.217.952.338l.265.072c.426.129.784.257 1.073.386.29.137.535.321.736.555.2.24.301.55.301.928 0 .57-.225 1.017-.675 1.338-.45.33-1.049.494-1.796.494zm8.849-3.846c.032.201.048.427.048.676l-.012.373c0 .097-.048.145-.145.145h-3.773c-.04 0-.06.02-.06.06.023.266.06.446.108.543.193.578.663.872 1.41.88.547 0 .981-.225 1.302-.675.033-.048.073-.073.121-.073.032 0 .06.013.084.037l.748.614c.072.057.084.121.036.193-.25.354-.583.627-1 .82-.41.193-.869.29-1.375.29-.627 0-1.161-.141-1.603-.422a2.439 2.439 0 0 1-.953-1.182c-.185-.434-.277-1.037-.277-1.808 0-.466.048-.844.145-1.134a2.46 2.46 0 0 1 .904-1.338c.45-.321.988-.482 1.615-.482 1.584 0 2.476.828 2.677 2.483zm-2.677-1.277c-.297 0-.546.076-.747.229-.193.144-.33.35-.41.615a2.09 2.09 0 0 0-.097.53c-.016.04 0 .06.049.06h2.447c.04 0 .06-.02.06-.06-.016-.201-.04-.354-.072-.458a1.158 1.158 0 0 0-.434-.675c-.209-.161-.474-.241-.796-.241z" fill="#242530"/><path d="M39.483 97.508c-.643 0-1.206-.104-1.688-.313-.482-.201-.852-.494-1.11-.88-.264-.378-.397-.82-.397-1.326v-.266c0-.04.016-.072.048-.096a.115.115 0 0 1 .097-.048h1.374a.15.15 0 0 1 .109.048.13.13 0 0 1 .036.096v.181c0 .322.148.591.446.808.297.225.7.337 1.205.337.426 0 .744-.088.953-.265a.869.869 0 0 0 .313-.675.654.654 0 0 0-.193-.482 1.562 1.562 0 0 0-.53-.35 12.958 12.958 0 0 0-1.049-.422 10.673 10.673 0 0 1-1.374-.566 2.682 2.682 0 0 1-.929-.796c-.257-.33-.385-.74-.385-1.23 0-.482.124-.904.373-1.266.25-.361.595-.638 1.037-.831.442-.193.953-.29 1.531-.29.611 0 1.154.109 1.628.326.482.217.86.522 1.133.916.265.386.398.836.398 1.35v.181a.13.13 0 0 1-.036.097.15.15 0 0 1-.109.048h-1.386a.114.114 0 0 1-.097-.048.114.114 0 0 1-.048-.097v-.096c0-.338-.136-.627-.41-.868-.281-.234-.663-.35-1.145-.35-.378 0-.675.08-.892.241a.79.79 0 0 0-.314.663c0 .201.065.37.193.507.12.136.306.257.555.361.24.113.619.261 1.133.446.57.21 1.017.394 1.338.555.33.16.627.398.892.711.258.322.386.736.386 1.242 0 .755-.277 1.35-.832 1.784-.554.442-1.306.663-2.254.663zm7.764-8.547c.53 0 .997.108 1.398.325.402.217.716.522.94.916.218.402.326.86.326 1.375 0 .506-.112.952-.337 1.338a2.413 2.413 0 0 1-.977.904c-.41.21-.884.314-1.422.314h-1.712c-.04 0-.06.02-.06.06v3.074c0 .04-.017.073-.049.097a.114.114 0 0 1-.096.048h-1.41a.15.15 0 0 1-.11-.048.13.13 0 0 1-.035-.097v-8.162c0-.04.011-.076.036-.108a.177.177 0 0 1 .108-.036h3.4zm-.253 3.81c.37 0 .667-.11.892-.326.225-.21.337-.486.337-.832 0-.354-.112-.639-.337-.856-.225-.217-.523-.326-.892-.326h-1.531c-.04 0-.06.02-.06.06v2.219c0 .04.02.06.06.06h1.53zm8.596 4.64a.17.17 0 0 1-.17-.108l-1.506-3.34c-.016-.031-.04-.047-.072-.047H52.72c-.04 0-.06.02-.06.06v3.291c0 .04-.016.073-.048.097a.114.114 0 0 1-.097.048h-1.41a.15.15 0 0 1-.109-.048.13.13 0 0 1-.036-.097v-8.15a.13.13 0 0 1 .036-.096.15.15 0 0 1 .109-.048h3.448c.514 0 .964.104 1.35.313.394.21.695.507.904.892.217.386.326.832.326 1.338 0 .547-.137 1.013-.41 1.399a2.17 2.17 0 0 1-1.145.832c-.04.016-.053.044-.037.084l1.64 3.412a.186.186 0 0 1 .024.072c0 .065-.044.097-.132.097H55.59zm-2.87-6.98c-.04 0-.06.02-.06.06v2.062c0 .04.02.06.06.06h1.58c.337 0 .61-.1.82-.3.217-.202.325-.463.325-.785 0-.321-.108-.586-.325-.795-.21-.201-.483-.302-.82-.302h-1.58zm5.787 6.98a.114.114 0 0 1-.096-.047.114.114 0 0 1-.049-.097v-8.15c0-.04.017-.072.049-.096a.114.114 0 0 1 .096-.048h1.41a.15.15 0 0 1 .11.048.13.13 0 0 1 .035.096v8.15a.13.13 0 0 1-.036.097.15.15 0 0 1-.108.048h-1.41zm7.873-8.294c0-.04.016-.072.048-.096a.114.114 0 0 1 .096-.048h1.411a.15.15 0 0 1 .108.048.13.13 0 0 1 .037.096v8.15a.13.13 0 0 1-.037.097.15.15 0 0 1-.108.048h-1.362c-.08 0-.137-.032-.17-.097l-3.122-5.16c-.016-.024-.032-.032-.048-.024-.016 0-.024.016-.024.049l.024 5.087a.13.13 0 0 1-.036.097.15.15 0 0 1-.108.048h-1.411a.114.114 0 0 1-.096-.048.114.114 0 0 1-.049-.097v-8.15c0-.04.016-.072.048-.096a.114.114 0 0 1 .097-.048h1.362c.08 0 .137.032.169.096l3.11 5.136c.017.024.033.032.049.024.016 0 .024-.016.024-.048l-.012-5.064zm6.136 8.391c-.619 0-1.165-.124-1.64-.373a2.68 2.68 0 0 1-1.097-1.037c-.265-.45-.397-.969-.397-1.555v-2.701c0-.587.132-1.105.397-1.555.258-.45.623-.8 1.098-1.05.474-.24 1.02-.36 1.64-.36.61 0 1.153.12 1.627.36.466.242.832.572 1.097.99.257.41.386.867.386 1.374v.084a.13.13 0 0 1-.036.097.15.15 0 0 1-.109.048h-1.41a.114.114 0 0 1-.097-.048.115.115 0 0 1-.048-.097v-.036c0-.37-.129-.68-.386-.928-.257-.257-.599-.386-1.025-.386-.434 0-.78.133-1.037.398-.265.273-.397.627-.397 1.06v2.798c0 .434.14.783.422 1.049.28.273.638.41 1.072.41.419 0 .752-.113 1.001-.338.25-.217.374-.523.374-.916v-.543c0-.04-.02-.06-.06-.06h-1.35a.115.115 0 0 1-.097-.048.115.115 0 0 1-.048-.097V92.94c0-.04.016-.072.048-.096a.115.115 0 0 1 .096-.049h2.942a.15.15 0 0 1 .109.049.13.13 0 0 1 .036.096v1.592c0 .61-.129 1.14-.386 1.59-.257.451-.619.797-1.085 1.038-.474.233-1.02.35-1.64.35zM46.547 107.214c-.016.016-.02.032-.012.048s.025.024.049.024h3.267c.04 0 .076.012.108.036a.18.18 0 0 1 .036.109v1.169a.13.13 0 0 1-.036.097.15.15 0 0 1-.108.048h-5.425a.15.15 0 0 1-.109-.048.13.13 0 0 1-.036-.097v-1.109c0-.072.024-.132.072-.181.394-.385.796-.803 1.206-1.253.41-.459.667-.744.771-.856.226-.266.455-.519.688-.76.731-.812 1.097-1.414 1.097-1.808a.91.91 0 0 0-.302-.7c-.2-.176-.462-.265-.783-.265-.322 0-.583.089-.784.265a.938.938 0 0 0-.301.724v.301c0 .04-.017.077-.049.109a.13.13 0 0 1-.096.036h-1.423a.13.13 0 0 1-.096-.036.15.15 0 0 1-.048-.109v-.566c.024-.434.16-.82.41-1.158a2.41 2.41 0 0 1 .988-.759 3.552 3.552 0 0 1 1.399-.266c.57 0 1.069.105 1.495.314.418.217.743.506.976.868.225.362.338.764.338 1.206 0 .337-.085.683-.253 1.036a5.727 5.727 0 0 1-.76 1.146c-.25.313-.518.623-.808.928-.29.305-.72.747-1.29 1.326l-.18.181zm7.367 1.664c-.885 0-1.584-.249-2.098-.748-.515-.49-.772-1.161-.772-2.013v-3.183c0-.836.258-1.499.772-1.989s1.213-.736 2.098-.736c.884 0 1.587.246 2.11.736.514.49.771 1.153.771 1.989v3.183c0 .852-.257 1.523-.772 2.013-.522.499-1.225.748-2.11.748zm0-1.459c.361 0 .65-.113.868-.338.209-.217.313-.51.313-.88v-3.315c0-.37-.104-.663-.313-.88-.217-.225-.507-.338-.868-.338-.354 0-.635.113-.844.338-.217.217-.326.51-.326.88v3.315c0 .37.109.663.326.88.209.225.49.338.844.338zm6.257-.205c-.016.016-.02.032-.012.048s.024.024.048.024h3.267c.04 0 .076.012.109.036a.18.18 0 0 1 .036.109v1.169a.13.13 0 0 1-.036.097.15.15 0 0 1-.109.048h-5.425a.115.115 0 0 1-.097-.048.114.114 0 0 1-.048-.097v-1.109c0-.072.024-.132.072-.181.394-.385.796-.803 1.206-1.253.41-.459.667-.744.772-.856.225-.266.454-.519.687-.76.731-.812 1.097-1.414 1.097-1.808a.91.91 0 0 0-.301-.7c-.201-.176-.463-.265-.784-.265-.322 0-.583.089-.784.265a.938.938 0 0 0-.301.724v.301c0 .04-.012.077-.036.109a.177.177 0 0 1-.109.036h-1.422a.13.13 0 0 1-.097-.036.151.151 0 0 1-.048-.109v-.566c.024-.434.16-.82.41-1.158.249-.329.583-.582 1-.759.41-.177.873-.266 1.387-.266.57 0 1.069.105 1.495.314.418.217.743.506.976.868.225.362.338.764.338 1.206 0 .337-.084.683-.253 1.036a5.728 5.728 0 0 1-.76 1.146c-.249.313-.518.623-.807.928-.29.305-.72.747-1.29 1.326l-.181.181zm5.678-6.872a.36.36 0 0 1 .18-.036h1.46a.15.15 0 0 1 .108.048.13.13 0 0 1 .036.097v8.149a.13.13 0 0 1-.036.097.15.15 0 0 1-.108.048h-1.41a.115.115 0 0 1-.097-.048.115.115 0 0 1-.049-.097v-6.606c0-.016-.008-.032-.024-.048-.016-.017-.032-.021-.048-.013l-1.194.326-.048.012c-.072 0-.108-.044-.108-.133l-.036-1.036a.17.17 0 0 1 .108-.169l1.266-.591z" fill="#252530"/></svg>