<svg xmlns="http://www.w3.org/2000/svg" width="19" height="22" viewBox="0 0 19 22">
  <path fill="#FFF" stroke="#FFF" d="M84.9880979,6 C84.4292398,6 83.9761957,6.46315309 83.9761957,7.03448138 L83.9761957,18.7586037 C83.9761957,19.5203747 83.3721371,20.1379122 82.6269929,20.1379122 L72.4548816,20.1379122 L74.4377881,18.1108028 C74.8329706,17.7068023 74.8329706,17.0517881 74.4377881,16.6477875 C74.0426056,16.243787 73.4018881,16.243787 73.0067055,16.6477875 L69.2963977,20.4408859 C69.106618,20.6348904 69,20.8980228 69,21.1723936 C69,21.4467643 69.106618,21.7098968 69.2963977,21.9039012 L73.0067055,25.6969996 C73.4018881,26.1010001 74.0426056,26.1010001 74.4377881,25.6969996 C74.8329706,25.2929991 74.8329706,24.6379848 74.4377881,24.2339843 L72.4548816,22.206875 L82.6269929,22.206875 C84.4898533,22.206875 86,20.6630313 86,18.7586037 L86,7.03448138 C86,6.46315309 85.546956,6 84.9880979,6 Z" transform="translate(-68 -5)"/>
</svg>
