<svg width="112" height="126" fill="none" xmlns="http://www.w3.org/2000/svg"><path d="m9.282 97.895 47.621 24.232 45.813-24.232V3.135H9.282v94.76z" fill="#fff"/><path d="M103.682 3.496 8.319 99.582l49.43 24.474 45.933-23.509V3.497z" fill="#F2F3F2"/><path d="M6.148 34.721v65.223l1.688.844 47.621 24.232 1.447.724 1.446-.724 45.934-24.232 1.688-.844V0H6.148v34.721zm3.135 63.415V3.135h93.554v95l-45.933 24.233L9.283 98.136z" fill="#DCDEDC"/><path d="M56.06 4.702c.483 0 .965 0 1.447.12l-1.446 2.773c-2.17-.12-4.1 1.568-4.22 3.738-.12 2.17 1.567 4.099 3.737 4.22h.483c.964 0 1.929-.363 2.652-.965l1.567 2.652a7.308 7.308 0 0 1-4.22 1.326c-3.857.12-7.112-2.773-7.233-6.63-.12-3.858 2.773-7.114 6.631-7.234h.603zm4.944 5.907 1.808 3.014-1.808 2.894-1.688-2.894H55.82l1.808-3.014h3.376zM58.11 9.524c0-.482.12-.964.362-1.326.241-.362.723-.723 1.085-.964l.241-.121c.482-.241.603-.362.603-.603 0-.24-.362-.482-.603-.482-.482 0-.844.241-1.085.723l-.603-.602c.12-.242.362-.483.603-.724.362-.24.723-.24 1.085-.24s.844.12 1.085.36c.241.242.482.604.482.965 0 .603-.361 1.085-1.085 1.326l-.361.242c-.362.24-.603.361-.724.723h2.17v.844l-3.255-.12zm-2.05 15.07 11.454-6.51V0H44.487v17.963l11.574 6.631zM108.263 67.272H3.858L0 75.712l3.858 8.438h104.405L112 75.711l-3.737-8.439z" fill="#FF492C"/><path d="M29.97 61.847a.197.197 0 0 1-.144-.06.198.198 0 0 1-.06-.145V50.237c0-.056.02-.104.06-.145.04-.04.088-.06.145-.06h1.977c.056 0 .104.02.144.06.04.04.06.089.06.145v9.488c0 .056.029.085.085.085h5.522c.056 0 .1.016.132.048.04.04.06.088.06.145v1.64c0 .055-.02.104-.06.144a.16.16 0 0 1-.132.06H29.97zm16.987-5.232c.065.426.085.904.06 1.434-.007.137-.08.205-.216.205h-5.22c-.065 0-.085.029-.06.085.031.225.092.45.18.675.297.627.896.94 1.796.94.716-.008 1.282-.301 1.7-.88.048-.064.1-.096.157-.096.032 0 .068.024.108.072l1.218 1.194c.056.056.084.108.084.156 0 .016-.02.06-.06.133a3.856 3.856 0 0 1-1.434 1.073c-.587.25-1.23.374-1.93.374-.964 0-1.784-.217-2.459-.651-.667-.442-1.145-1.057-1.434-1.845-.242-.563-.362-1.298-.362-2.206 0-.619.084-1.166.253-1.64.257-.803.711-1.438 1.362-1.905.643-.474 1.41-.71 2.303-.71 1.125 0 2.03.325 2.713.976.675.65 1.089 1.523 1.241 2.616zm-3.942-1.531c-.707 0-1.173.33-1.398.988-.04.145-.08.326-.121.543 0 .056.028.084.084.084h2.93c.064 0 .084-.028.06-.084a9.407 9.407 0 0 0-.084-.47 1.404 1.404 0 0 0-.53-.784c-.25-.185-.563-.277-.94-.277zm8.934-2.05c.731 0 1.382.129 1.953.386.578.25 1.028.595 1.35 1.037.321.434.482.924.482 1.47v5.715c0 .056-.02.105-.06.145a.197.197 0 0 1-.145.06h-1.977a.197.197 0 0 1-.145-.06.197.197 0 0 1-.06-.145v-.554a.081.081 0 0 0-.036-.073c-.016-.008-.036.004-.06.036-.475.62-1.234.929-2.279.929-.876 0-1.587-.213-2.134-.64-.538-.425-.808-1.056-.808-1.892 0-.868.306-1.54.917-2.013.602-.483 1.466-.724 2.592-.724h1.724c.056 0 .084-.028.084-.084v-.362c0-.378-.113-.671-.337-.88-.226-.2-.563-.301-1.013-.301-.346 0-.635.06-.868.18a.831.831 0 0 0-.446.519c-.032.128-.105.185-.217.169l-2.05-.265c-.128-.025-.189-.077-.18-.157.047-.466.236-.892.566-1.278.33-.386.767-.683 1.314-.892.547-.217 1.157-.326 1.833-.326zm-.338 7.174c.482 0 .892-.13 1.23-.386.337-.258.506-.591.506-1.001v-.603c0-.056-.028-.084-.084-.084h-1.218c-.506 0-.9.096-1.181.29a.918.918 0 0 0-.434.807c0 .305.108.547.325.723.209.17.494.254.856.254zm11.176-9.97c0-.057.02-.105.06-.145.04-.04.089-.06.145-.06h1.965c.056 0 .104.02.145.06.04.04.06.088.06.144v11.405c0 .056-.02.105-.06.145a.197.197 0 0 1-.145.06h-1.965a.197.197 0 0 1-.145-.06.197.197 0 0 1-.06-.145v-.554c0-.033-.012-.053-.036-.06-.024-.009-.048 0-.073.023-.466.62-1.113.929-1.94.929-.788 0-1.463-.217-2.026-.651-.57-.442-.98-1.045-1.23-1.809-.193-.586-.29-1.27-.29-2.05 0-.795.105-1.49.314-2.085.258-.723.663-1.294 1.218-1.712.555-.426 1.246-.639 2.074-.639.803 0 1.43.282 1.88.844.025.032.049.044.073.036.024-.008.036-.032.036-.072v-3.605zm-.362 8.98c.225-.417.338-.988.338-1.711 0-.756-.12-1.346-.362-1.772-.265-.434-.643-.651-1.133-.651-.53 0-.932.217-1.206.65-.281.443-.422 1.041-.422 1.797 0 .675.12 1.238.362 1.688.281.482.695.723 1.242.723.506 0 .9-.24 1.181-.723zm12.213-2.603c.064.426.084.904.06 1.434-.008.137-.08.205-.217.205h-5.22c-.064 0-.084.029-.06.085.032.225.092.45.18.675.298.627.897.94 1.797.94.715-.008 1.282-.301 1.7-.88.048-.064.1-.096.156-.096.033 0 .069.024.109.072l1.218 1.194c.056.056.084.108.084.156 0 .016-.02.06-.06.133a3.856 3.856 0 0 1-1.435 1.073c-.587.25-1.23.374-1.929.374-.964 0-1.784-.217-2.46-.651-.666-.442-1.145-1.057-1.434-1.845-.241-.563-.362-1.298-.362-2.206 0-.619.085-1.166.254-1.64.257-.803.71-1.438 1.362-1.905.643-.474 1.41-.71 2.302-.71 1.126 0 2.03.325 2.713.976.675.65 1.09 1.523 1.242 2.616zm-3.942-1.531c-.708 0-1.174.33-1.399.988-.04.145-.08.326-.12.543 0 .056.028.084.084.084h2.93c.064 0 .084-.028.06-.084a9.247 9.247 0 0 0-.085-.47 1.404 1.404 0 0 0-.53-.784c-.25-.185-.563-.277-.94-.277zm9.789-2.026c.41 0 .731.077.965.23.088.048.124.132.108.253l-.362 1.928c-.008.137-.084.177-.229.121a1.872 1.872 0 0 0-.59-.084c-.097 0-.221.008-.374.024-.41.04-.756.189-1.037.446-.281.265-.422.619-.422 1.06v4.606a.224.224 0 0 1-.048.145.197.197 0 0 1-.145.06h-1.977a.197.197 0 0 1-.145-.06.197.197 0 0 1-.06-.145v-8.27c0-.056.02-.105.06-.145.04-.04.089-.06.145-.06h1.977c.056 0 .105.02.145.06.032.04.048.089.048.145v.639c0 .04.012.064.036.072.024.008.04.004.048-.012.467-.675 1.085-1.013 1.857-1.013zM22.317 33.286a.27.27 0 0 1 .24-.132h1.978c.056 0 .105.02.145.06.04.04.06.089.06.145v11.405c0 .056-.02.104-.06.144a.197.197 0 0 1-.145.06h-1.977a.197.197 0 0 1-.145-.06.197.197 0 0 1-.06-.144v-7.439c0-.048-.012-.072-.036-.072-.016 0-.036.016-.06.048l-1.797 2.81a.26.26 0 0 1-.229.132h-1a.26.26 0 0 1-.23-.133l-1.796-2.809c-.024-.032-.044-.044-.06-.036-.024.008-.037.032-.037.072v7.427c0 .056-.02.104-.06.144a.197.197 0 0 1-.144.06h-1.978a.197.197 0 0 1-.144-.06.198.198 0 0 1-.06-.144V33.359c0-.056.02-.105.06-.145.04-.04.088-.06.144-.06h1.978a.27.27 0 0 1 .24.132l2.533 3.93c.032.073.064.073.096 0l2.544-3.93zm8.162 11.815c-.949 0-1.76-.245-2.436-.735-.675-.498-1.137-1.174-1.386-2.026a6.21 6.21 0 0 1-.23-1.724c0-.667.077-1.265.23-1.796.257-.828.723-1.479 1.398-1.953.675-.474 1.487-.711 2.436-.711.924 0 1.712.233 2.363.699.65.466 1.113 1.117 1.386 1.953.177.563.265 1.153.265 1.772 0 .611-.076 1.178-.229 1.7-.249.884-.707 1.575-1.374 2.074-.675.498-1.483.747-2.423.747zm0-2.037c.37 0 .683-.113.94-.338.257-.225.442-.534.555-.928a4.97 4.97 0 0 0 .132-1.181c0-.475-.044-.877-.132-1.206-.121-.378-.31-.675-.567-.892a1.492 1.492 0 0 0-.953-.314c-.377 0-.695.105-.952.314-.25.217-.43.514-.542.892-.097.273-.145.675-.145 1.206 0 .506.04.9.12 1.18.113.395.302.704.567.93.265.224.59.337.977.337zm15.19-6.908c.876 0 1.56.265 2.05.795.498.53.747 1.274.747 2.23v5.583c0 .056-.02.104-.06.144a.197.197 0 0 1-.145.06h-1.977a.197.197 0 0 1-.145-.06.225.225 0 0 1-.048-.144V39.7c0-.458-.12-.824-.362-1.097-.233-.265-.546-.398-.94-.398-.394 0-.715.133-.964.398-.25.273-.374.635-.374 1.085v5.076c0 .056-.02.104-.06.144a.197.197 0 0 1-.145.06h-1.953a.197.197 0 0 1-.145-.06.197.197 0 0 1-.06-.144V39.7c0-.45-.125-.812-.374-1.085-.241-.273-.558-.41-.952-.41-.362 0-.663.105-.904.314-.242.217-.386.514-.434.892v5.353c0 .056-.02.104-.06.144a.197.197 0 0 1-.145.06H36.24a.16.16 0 0 1-.132-.06.197.197 0 0 1-.06-.144v-8.27c0-.057.02-.105.06-.145a.16.16 0 0 1 .132-.06h1.978c.056 0 .104.02.144.06.04.04.06.088.06.144v.663c0 .032.013.053.037.06.024.017.044.009.06-.023.466-.692 1.181-1.037 2.146-1.037.563 0 1.057.12 1.483.361.418.233.74.571.964 1.013.032.064.073.064.12 0 .25-.466.584-.812 1.002-1.037a3.024 3.024 0 0 1 1.434-.337zm12.153 3.58c.064.426.084.905.06 1.435-.008.137-.08.205-.217.205h-5.22c-.065 0-.085.028-.06.084.032.225.092.45.18.675.297.627.896.94 1.797.94.715-.007 1.282-.3 1.7-.88.048-.063.1-.096.156-.096.032 0 .068.025.109.073l1.217 1.193c.056.056.085.109.085.157a.47.47 0 0 1-.06.133 3.855 3.855 0 0 1-1.435 1.072c-.587.25-1.23.374-1.93.374-.964 0-1.784-.217-2.459-.65-.667-.443-1.145-1.058-1.434-1.845-.241-.563-.362-1.298-.362-2.207 0-.618.084-1.165.253-1.64.257-.803.712-1.438 1.363-1.904.643-.474 1.41-.711 2.302-.711 1.125 0 2.03.325 2.713.976.675.651 1.089 1.523 1.242 2.616zm-3.943-1.53c-.707 0-1.173.329-1.398.988-.04.145-.08.325-.12.542 0 .057.027.085.084.085h2.93c.063 0 .084-.028.06-.085a9.376 9.376 0 0 0-.085-.47 1.405 1.405 0 0 0-.53-.783c-.25-.185-.563-.278-.94-.278zm9.995-2.05c.9 0 1.627.277 2.182.832.546.546.82 1.294.82 2.242v5.534c0 .056-.02.104-.06.144a.16.16 0 0 1-.133.06h-1.978a.197.197 0 0 1-.144-.06.197.197 0 0 1-.06-.144v-5.04c0-.45-.129-.816-.386-1.097-.25-.281-.583-.422-1-.422-.419 0-.752.14-1.002.422-.257.281-.385.647-.385 1.097v5.04c0 .056-.02.104-.06.144a.16.16 0 0 1-.133.06h-1.977a.197.197 0 0 1-.145-.06.197.197 0 0 1-.06-.144v-8.27c0-.057.02-.105.06-.145.04-.04.088-.06.145-.06h1.977c.056 0 .1.02.132.06.04.04.06.088.06.144v.591c0 .032.013.056.037.072.024.008.04 0 .048-.024.466-.65 1.154-.976 2.062-.976zM73.567 38c0 .057-.02.105-.06.145a.197.197 0 0 1-.145.06h-1.616c-.056 0-.084.028-.084.085v3.568c0 .378.076.655.229.832.145.177.386.265.723.265h.567c.056 0 .1.02.133.06.04.04.06.089.06.145v1.604c0 .128-.064.2-.193.217a22.92 22.92 0 0 1-1.013.036c-.94 0-1.64-.153-2.098-.458-.458-.314-.695-.896-.71-1.748V38.29c0-.057-.029-.085-.085-.085h-.965a.197.197 0 0 1-.144-.06.225.225 0 0 1-.049-.145v-1.507c0-.056.016-.104.049-.144.04-.04.088-.06.144-.06h.965c.056 0 .084-.029.084-.085v-2.001c0-.057.02-.105.06-.145.04-.04.089-.06.145-.06h1.893c.056 0 .104.02.145.06.04.04.06.088.06.145v2.001c0 .056.028.084.084.084h1.616c.056 0 .104.02.144.06.04.04.06.09.06.145V38zm6.498-1.507c0-.056.02-.104.06-.144.04-.04.088-.06.145-.06h1.965c.056 0 .104.02.145.06.04.04.06.088.06.144v8.27c0 .057-.02.105-.06.145a.197.197 0 0 1-.145.06H80.27a.197.197 0 0 1-.145-.06.197.197 0 0 1-.06-.144v-.567c0-.04-.012-.06-.036-.06-.024-.008-.048.004-.073.036-.45.61-1.145.916-2.085.916-.86 0-1.564-.261-2.11-.783-.555-.515-.832-1.238-.832-2.17v-5.643c0-.056.02-.104.06-.144.04-.04.089-.06.145-.06h1.953c.056 0 .105.02.145.06.04.04.06.088.06.144v5.052c0 .45.12.816.362 1.097.24.281.578.422 1.012.422.378 0 .692-.117.94-.35.25-.233.403-.534.459-.904v-5.317zm13.756-.337c.876 0 1.563.265 2.061.795.49.53.736 1.274.736 2.23v5.583c0 .056-.02.104-.06.144a.197.197 0 0 1-.145.06h-1.965a.197.197 0 0 1-.145-.06.197.197 0 0 1-.06-.144V39.7c0-.458-.12-.824-.362-1.097-.233-.265-.546-.398-.94-.398-.394 0-.716.133-.965.398-.249.273-.374.635-.374 1.085v5.076a.225.225 0 0 1-.048.144.197.197 0 0 1-.145.06h-1.965a.197.197 0 0 1-.144-.06.197.197 0 0 1-.06-.144V39.7c0-.45-.121-.812-.362-1.085-.25-.273-.57-.41-.965-.41-.361 0-.663.105-.904.314-.241.217-.386.514-.434.892v5.353c0 .056-.02.104-.06.144a.197.197 0 0 1-.145.06h-1.965a.197.197 0 0 1-.145-.06.197.197 0 0 1-.06-.144v-8.27c0-.057.02-.105.06-.145.04-.04.089-.06.145-.06h1.965c.056 0 .105.02.145.06.04.04.06.088.06.144v.663c0 .032.012.053.036.06.024.017.048.009.073-.023.458-.692 1.169-1.037 2.133-1.037.563 0 1.057.12 1.483.361.418.233.74.571.965 1.013.04.064.08.064.12 0 .25-.466.587-.812 1.013-1.037a2.953 2.953 0 0 1 1.423-.337z" fill="#252530"/><path d="M39.471 80.51c-.627 0-1.173-.1-1.64-.301-.466-.201-.827-.483-1.085-.844-.249-.362-.373-.788-.373-1.278v-.302a.15.15 0 0 1 .048-.108.13.13 0 0 1 .096-.036h1.073c.04 0 .077.012.109.036a.176.176 0 0 1 .036.108v.23c0 .37.165.675.494.916.33.249.78.373 1.35.373.49 0 .86-.104 1.11-.313.249-.209.373-.478.373-.808a.864.864 0 0 0-.204-.579 1.996 1.996 0 0 0-.58-.421 13.44 13.44 0 0 0-1.145-.483 11.93 11.93 0 0 1-1.386-.59 2.507 2.507 0 0 1-.88-.76c-.241-.313-.362-.707-.362-1.181 0-.708.258-1.266.772-1.676.514-.41 1.201-.615 2.062-.615.602 0 1.137.104 1.603.313.458.21.816.503 1.073.88.257.37.386.8.386 1.29v.205a.15.15 0 0 1-.049.109.13.13 0 0 1-.096.036h-1.085a.13.13 0 0 1-.096-.036.15.15 0 0 1-.049-.109v-.132c0-.378-.152-.695-.458-.953-.313-.265-.743-.397-1.29-.397-.442 0-.783.092-1.025.277-.249.185-.373.446-.373.783 0 .242.064.438.193.591.128.153.321.29.578.41.257.129.655.29 1.194.482.57.217 1.029.414 1.374.591.338.177.631.422.88.736.241.321.362.719.362 1.193 0 .723-.27 1.298-.808 1.724-.53.426-1.258.639-2.182.639zm7.788-8.548c.507 0 .953.105 1.338.314.386.209.684.502.893.88.217.386.325.828.325 1.326 0 .49-.108.924-.325 1.302a2.17 2.17 0 0 1-.917.868c-.401.21-.864.314-1.386.314h-1.93c-.04 0-.06.02-.06.06v3.243a.13.13 0 0 1-.036.096.15.15 0 0 1-.108.049h-1.11a.114.114 0 0 1-.096-.049.114.114 0 0 1-.048-.096v-8.162a.15.15 0 0 1 .048-.108.13.13 0 0 1 .097-.037h3.315zm-.205 3.87c.41 0 .74-.12.989-.361.249-.242.374-.559.374-.953 0-.402-.125-.727-.374-.976-.25-.25-.579-.374-.989-.374h-1.796c-.04 0-.06.02-.06.06v2.544c0 .04.02.06.06.06h1.796zm8.729 4.582a.17.17 0 0 1-.169-.109l-1.591-3.472c-.016-.032-.04-.048-.073-.048h-1.446c-.04 0-.06.02-.06.06v3.424c0 .04-.017.072-.049.096a.115.115 0 0 1-.096.049h-1.11a.115.115 0 0 1-.096-.049.115.115 0 0 1-.048-.096v-8.15c0-.04.016-.072.048-.096a.115.115 0 0 1 .096-.049h3.316c.49 0 .924.1 1.302.302.378.209.671.498.88.868.209.378.314.808.314 1.29 0 .554-.141 1.025-.422 1.41-.29.394-.688.667-1.194.82-.016 0-.028.008-.036.024a.05.05 0 0 0 0 .049l1.7 3.508a.184.184 0 0 1 .024.072c0 .064-.044.097-.133.097h-1.157zm-3.28-7.234c-.04 0-.06.02-.06.06v2.4c0 .04.02.06.06.06h1.809c.386 0 .695-.117.928-.35.241-.225.362-.526.362-.904s-.12-.683-.362-.916c-.233-.234-.542-.35-.928-.35h-1.808zm6.077 7.234a.15.15 0 0 1-.109-.049.13.13 0 0 1-.036-.096v-8.15a.13.13 0 0 1 .036-.096.15.15 0 0 1 .109-.049h1.109c.04 0 .072.016.096.049a.115.115 0 0 1 .049.096v8.15c0 .04-.017.072-.049.096a.115.115 0 0 1-.096.049h-1.11zm7.92-8.295c0-.04.017-.072.049-.096a.115.115 0 0 1 .096-.049h1.11a.15.15 0 0 1 .108.049.13.13 0 0 1 .036.096v8.15a.13.13 0 0 1-.036.096.15.15 0 0 1-.109.049h-1.073c-.08 0-.136-.033-.168-.097l-3.473-5.69c-.016-.024-.032-.036-.048-.036-.016.008-.024.028-.024.06l.024 5.618c0 .04-.016.072-.048.096a.114.114 0 0 1-.096.049h-1.11a.115.115 0 0 1-.096-.049.115.115 0 0 1-.048-.096v-8.15c0-.04.016-.072.048-.096a.115.115 0 0 1 .096-.049h1.073c.08 0 .137.032.17.097l3.46 5.69c.015.024.031.032.047.024.017 0 .025-.016.025-.048L66.5 72.12zm5.98 8.391c-.603 0-1.133-.117-1.591-.35a2.58 2.58 0 0 1-1.061-1.012c-.25-.434-.374-.933-.374-1.495v-2.918c0-.57.125-1.073.374-1.507.25-.426.603-.76 1.06-1 .46-.233.99-.35 1.592-.35.595 0 1.121.117 1.58.35.45.233.8.55 1.049.952.249.402.373.856.373 1.362v.097a.13.13 0 0 1-.036.096.15.15 0 0 1-.108.048H74.24a.115.115 0 0 1-.097-.048.115.115 0 0 1-.048-.096v-.06c0-.434-.149-.792-.446-1.073-.29-.282-.68-.422-1.17-.422-.49 0-.884.148-1.181.446-.298.289-.446.675-.446 1.157v3.014c0 .482.157.872.47 1.17.313.289.72.433 1.218.433.482 0 .864-.128 1.145-.385.273-.25.41-.595.41-1.037v-.748c0-.04-.02-.06-.06-.06h-1.483a.15.15 0 0 1-.109-.048.13.13 0 0 1-.036-.097v-.892a.13.13 0 0 1 .036-.096.15.15 0 0 1 .109-.048h2.785a.15.15 0 0 1 .108.048.13.13 0 0 1 .036.096v1.543c0 .925-.269 1.644-.808 2.158-.546.515-1.277.772-2.194.772z" fill="#fff"/><path d="M42.22 102.187c-.024.024-.032.048-.024.072.017.024.04.036.073.036h4.738c.056 0 .104.02.144.06a.185.185 0 0 1 .073.145v1.7a.185.185 0 0 1-.073.145.198.198 0 0 1-.144.06h-7.86a.213.213 0 0 1-.157-.06.2.2 0 0 1-.06-.145v-1.616c0-.104.035-.192.108-.265a38.33 38.33 0 0 0 1.748-1.82c.595-.66.968-1.07 1.121-1.23.322-.386.651-.755.989-1.11 1.06-1.172 1.591-2.045 1.591-2.615 0-.41-.145-.748-.434-1.013-.29-.257-.667-.386-1.133-.386-.466 0-.844.129-1.134.386-.297.265-.446.615-.446 1.049v.434c0 .056-.02.105-.06.145a.197.197 0 0 1-.145.06h-2.061a.197.197 0 0 1-.145-.06.182.182 0 0 1-.072-.145v-.82c.04-.627.241-1.185.603-1.676.361-.482.84-.852 1.434-1.109.603-.257 1.278-.386 2.026-.386.828 0 1.547.157 2.158.47.61.306 1.08.72 1.41 1.242a3.19 3.19 0 0 1 .507 1.749c0 .49-.125.992-.374 1.507-.241.514-.607 1.069-1.097 1.663-.362.45-.752.9-1.17 1.35-.417.443-1.04 1.082-1.868 1.917l-.265.266zm10.682 2.411c-1.286 0-2.299-.358-3.038-1.073-.747-.715-1.121-1.692-1.121-2.93v-4.617c0-1.214.373-2.174 1.121-2.882.74-.715 1.752-1.073 3.038-1.073 1.278 0 2.295.358 3.05 1.073.748.708 1.122 1.668 1.122 2.882v4.617c0 1.238-.374 2.215-1.122 2.93-.755.715-1.772 1.073-3.05 1.073zm0-2.11c.523 0 .937-.161 1.242-.482.313-.322.47-.752.47-1.29v-4.81c0-.531-.157-.957-.47-1.279-.305-.321-.72-.482-1.242-.482-.514 0-.924.161-1.23.483-.313.321-.47.747-.47 1.278v4.81c0 .538.157.968.47 1.29.306.321.716.482 1.23.482zm9.066-.301c-.024.024-.028.048-.012.072.008.024.032.036.072.036h4.738c.057 0 .105.02.145.06a.2.2 0 0 1 .06.145v1.7a.2.2 0 0 1-.06.145.198.198 0 0 1-.145.06h-7.872a.198.198 0 0 1-.145-.06.2.2 0 0 1-.06-.145v-1.616c0-.104.032-.192.096-.265a31.693 31.693 0 0 0 1.748-1.82c.595-.66.969-1.07 1.122-1.23.33-.386.663-.755 1-1.11 1.061-1.172 1.592-2.045 1.592-2.615 0-.41-.145-.748-.434-1.013-.298-.257-.68-.386-1.146-.386-.466 0-.843.129-1.133.386-.29.265-.434.615-.434 1.049v.434c0 .056-.02.105-.06.145a.212.212 0 0 1-.157.06h-2.061a.197.197 0 0 1-.145-.06.197.197 0 0 1-.06-.145v-.82c.032-.627.229-1.185.59-1.676a3.464 3.464 0 0 1 1.447-1.109c.603-.257 1.274-.386 2.013-.386.828 0 1.548.157 2.159.47.618.306 1.093.72 1.422 1.242.33.53.494 1.114.494 1.749 0 .49-.12.992-.361 1.507-.25.514-.62 1.069-1.11 1.663-.361.45-.75.9-1.169 1.35-.418.443-1.04 1.082-1.869 1.917l-.265.266zm8.234-9.97a.602.602 0 0 1 .266-.049h2.121c.057 0 .105.02.145.06.04.04.06.089.06.145V104.2a.2.2 0 0 1-.06.145.198.198 0 0 1-.144.06h-2.05a.198.198 0 0 1-.145-.06.185.185 0 0 1-.072-.145v-9.585a.13.13 0 0 0-.024-.072c-.024-.024-.048-.028-.073-.012l-1.736.47-.072.012c-.104 0-.157-.064-.157-.193l-.048-1.494c0-.121.052-.205.157-.254l1.832-.856z" fill="#252530"/></svg>